<svg width="96" height="96" viewBox="0 0 96 96" fill="none" xmlns="http://www.w3.org/2000/svg">
<g id="Color Swatch">
<path id="icon" d="M40 72V18C40 12 36 8 30 8H18C12 8 8 12 8 18V72C8 73.08 8.11995 74.16 8.31995 75.2C8.43995 75.72 8.55997 76.24 8.71997 76.76M40 72C40 76.32 38.2399 80.28 35.4399 83.16M40 72V33.36L50.84 22.52C55.08 18.28 60.76 18.28 65 22.52L73.48 31C77.72 35.24 77.72 40.92 73.48 45.16L62.64 56M35.4399 83.16L35.28 83.32C34.92 83.68 34.52 84.04 34.16 84.32C32.96 85.36 31.6 86.16 30.2 86.72C29.76 86.92 29.32 87.08 28.88 87.24C27.32 87.76 25.64 88 24 88M35.4399 83.16L62.64 56M24 88C22.92 88 21.84 87.88 20.8 87.68C20.28 87.56 19.76 87.44 19.24 87.28M24 88H78C84 88 88 84 88 78V66C88 60 84 56 78 56H62.64M19.24 87.28C18.6 87.08 18 86.88 17.4 86.6C17.4 86.56 17.4 86.56 17.36 86.6C16.24 86.04 15.16 85.4 14.16 84.64L14.12 84.6C13.6 84.2 13.1201 83.8 12.6801 83.32M19.24 87.28C16.84 86.56 14.5601 85.24 12.6801 83.32M19.24 87.28C14.24 85.72 10.28 81.76 8.71997 76.76M12.6801 83.32C12.2401 82.84 11.8 82.36 11.36 81.84C10.6 80.84 9.96002 79.76 9.40002 78.64C9.44002 78.6 9.44002 78.6 9.40002 78.6C9.40002 78.6 9.39999 78.56 9.35999 78.52C9.11999 77.96 8.91997 77.36 8.71997 76.76M12.6801 83.32C10.7601 81.44 9.43997 79.16 8.71997 76.76M28 72C28 74.2091 26.2091 76 24 76C21.7909 76 20 74.2091 20 72C20 69.7909 21.7909 68 24 68C26.2091 68 28 69.7909 28 72Z" stroke="black" stroke-width="1.5" stroke-linecap="round" stroke-linejoin="round"/>
</g>
</svg>
