<svg width="96" height="96" viewBox="0 0 96 96" fill="none" xmlns="http://www.w3.org/2000/svg">
<g id="Personalcard">
<path id="icon" d="M56 32H76M60 48H76M68 64H76M48 65.32C47.44 59.52 42.84 54.96 37.04 54.44C35.04 54.24 33 54.24 30.96 54.44C25.16 55 20.56 59.52 20 65.32M68 84H28C12 84 8 80 8 64V32C8 16 12 12 28 12H68C84 12 88 16 88 32V64C88 80 84 84 68 84ZM41.24 37.92C41.24 41.9185 37.9985 45.16 34 45.16C30.0015 45.16 26.76 41.9185 26.76 37.92C26.76 33.9215 30.0015 30.68 34 30.68C37.9985 30.68 41.24 33.9215 41.24 37.92Z" stroke="black" stroke-width="1.5" stroke-linecap="round" stroke-linejoin="round"/>
</g>
</svg>
