<svg width="32" height="30" viewBox="0 0 32 30" fill="none" xmlns="http://www.w3.org/2000/svg">
<g clip-path="url(#clip0_24_325)">
<path d="M15.5172 2.70117C19.6633 2.70117 20.1542 2.71875 21.7848 2.78906C23.3001 2.85352 24.1184 3.09961 24.6639 3.30469C25.3852 3.57422 25.9065 3.90234 26.446 4.42383C26.9915 4.95117 27.3249 5.44922 27.6037 6.14648C27.8159 6.67383 28.0704 7.4707 28.1371 8.92969C28.2099 10.5117 28.228 10.9863 28.228 14.9883C28.228 18.9961 28.2099 19.4707 28.1371 21.0469C28.0704 22.5117 27.8159 23.3027 27.6037 23.8301C27.3249 24.5273 26.9855 25.0313 26.446 25.5527C25.9005 26.0801 25.3852 26.4023 24.6639 26.6719C24.1184 26.877 23.294 27.123 21.7848 27.1875C20.1482 27.2578 19.6572 27.2754 15.5172 27.2754C11.3712 27.2754 10.8803 27.2578 9.24973 27.1875C7.73438 27.123 6.91608 26.877 6.37056 26.6719C5.64925 26.4023 5.12796 26.0742 4.5885 25.5527C4.04297 25.0254 3.70959 24.5273 3.43077 23.8301C3.21862 23.3027 2.96404 22.5059 2.89736 21.0469C2.82462 19.4648 2.80644 18.9902 2.80644 14.9883C2.80644 10.9805 2.82462 10.5059 2.89736 8.92969C2.96404 7.46484 3.21862 6.67383 3.43077 6.14648C3.70959 5.44922 4.04903 4.94531 4.5885 4.42383C5.13403 3.89648 5.64925 3.57422 6.37056 3.30469C6.91608 3.09961 7.74044 2.85352 9.24973 2.78906C10.8803 2.71875 11.3712 2.70117 15.5172 2.70117ZM15.5172 0C11.3046 0 10.7772 0.0175781 9.12244 0.0878906C7.47373 0.158203 6.34025 0.416016 5.3583 0.785156C4.33392 1.17187 3.46713 1.68164 2.60641 2.51953C1.73963 3.35156 1.21228 4.18945 0.812231 5.17383C0.430361 6.12891 0.163658 7.21875 0.0909213 8.8125C0.0181843 10.418 0 10.9277 0 15C0 19.0723 0.0181843 19.582 0.0909213 21.1816C0.163658 22.7754 0.430361 23.8711 0.812231 24.8203C1.21228 25.8105 1.73963 26.6484 2.60641 27.4805C3.46713 28.3125 4.33392 28.8281 5.35224 29.209C6.34025 29.5781 7.46767 29.8359 9.11638 29.9062C10.7711 29.9766 11.2985 29.9941 15.5112 29.9941C19.7239 29.9941 20.2512 29.9766 21.906 29.9062C23.5547 29.8359 24.6882 29.5781 25.6701 29.209C26.6884 28.8281 27.5552 28.3125 28.4159 27.4805C29.2767 26.6484 29.8101 25.8105 30.2041 24.8262C30.5859 23.8711 30.8526 22.7813 30.9254 21.1875C30.9981 19.5879 31.0163 19.0781 31.0163 15.0059C31.0163 10.9336 30.9981 10.4238 30.9254 8.82422C30.8526 7.23047 30.5859 6.13477 30.2041 5.18555C29.8222 4.18945 29.2949 3.35156 28.4281 2.51953C27.5674 1.6875 26.7006 1.17188 25.6822 0.791016C24.6942 0.421875 23.5668 0.164062 21.9181 0.09375C20.2573 0.0175781 19.7299 0 15.5172 0Z" fill="#3C096C"/>
<path d="M15.5172 7.29492C11.1166 7.29492 7.54639 10.7461 7.54639 15C7.54639 19.2539 11.1166 22.7051 15.5172 22.7051C19.9177 22.7051 23.4879 19.2539 23.4879 15C23.4879 10.7461 19.9177 7.29492 15.5172 7.29492ZM15.5172 19.998C12.6622 19.998 10.3468 17.7598 10.3468 15C10.3468 12.2402 12.6622 10.002 15.5172 10.002C18.3721 10.002 20.6875 12.2402 20.6875 15C20.6875 17.7598 18.3721 19.998 15.5172 19.998Z" fill="#3C096C"/>
<path d="M25.6641 6.99018C25.6641 7.98627 24.8276 8.78901 23.8032 8.78901C22.7728 8.78901 21.9424 7.98041 21.9424 6.99018C21.9424 5.99408 22.7789 5.19135 23.8032 5.19135C24.8276 5.19135 25.6641 5.99994 25.6641 6.99018Z" fill="#3C096C"/>
</g>
<defs>
<clipPath id="clip0_24_325">
<rect width="31.0345" height="30" fill="white"/>
</clipPath>
</defs>
</svg>
