<svg width="96" height="96" viewBox="0 0 96 96" fill="none" xmlns="http://www.w3.org/2000/svg">
<g id="Magicpen">
<path id="icon" d="M72.0398 35.96L60.0398 23.96M13.9998 82C17.3198 85.32 22.6798 85.32 25.9998 82L77.9998 30C81.3198 26.68 81.3198 21.32 77.9998 18C74.6798 14.68 69.3198 14.68 65.9998 18L13.9998 70C10.6798 73.32 10.6798 78.68 13.9998 82ZM33.9998 9.76L39.9998 8L38.2398 14L39.9998 20L33.9998 18.24L27.9998 20L29.7598 14L27.9998 8L33.9998 9.76ZM17.9998 33.76L23.9998 32L22.2398 38L23.9998 44L17.9998 42.24L11.9998 44L13.7598 38L11.9998 32L17.9998 33.76ZM77.9998 53.76L83.9998 52L82.2398 58L83.9998 64L77.9998 62.24L71.9998 64L73.7598 58L71.9998 52L77.9998 53.76Z" stroke="black" stroke-width="1.5" stroke-linecap="round" stroke-linejoin="round"/>
</g>
</svg>
