<svg width="58" height="58" viewBox="0 0 58 58" fill="none" xmlns="http://www.w3.org/2000/svg">
<path d="M26.2 1.00062H20.6C6.6 1.00062 1 6.60056 1 20.6004V37.4002C1 51.4001 6.6 57 20.6 57H37.4C51.4 57 57 51.4001 57 37.4002V31.8003M39.78 28.9443C39.78 23.0924 35.048 18.3324 29.168 18.3324M56.748 5.36857C53.304 13.9645 44.652 25.6683 37.428 31.4643L33.004 34.9922C32.444 35.4122 31.884 35.7482 31.24 36.0002C31.24 35.5802 31.212 35.1602 31.156 34.7122C30.904 32.8363 30.064 31.0723 28.552 29.5883C27.012 28.0483 25.164 27.1803 23.26 26.9283C22.812 26.9003 22.364 26.8723 21.916 26.9003C22.168 26.2003 22.532 25.5563 23.008 25.0244L26.536 20.6004C32.332 13.3765 44.064 4.66858 52.632 1.22461C53.948 0.72062 55.236 1.11262 56.048 1.92461C56.888 2.7646 57.28 4.05258 56.748 5.36857ZM31.268 35.9722C31.268 38.4362 30.316 40.7882 28.552 42.5802C27.18 43.9521 25.332 44.9041 23.12 45.1841L17.604 45.7721C14.608 46.1081 12.032 43.5601 12.368 40.5082L12.956 34.9922C13.488 30.0923 17.576 26.9563 21.944 26.8723C22.392 26.8443 22.84 26.8723 23.288 26.9003C25.192 27.1523 27.04 28.0203 28.58 29.5603C30.092 31.0723 30.932 32.8083 31.184 34.6842C31.24 35.1322 31.268 35.5802 31.268 35.9722Z" stroke="#3C096C" stroke-width="1.5" stroke-linecap="round" stroke-linejoin="round"/>
</svg>
