<svg width="56" height="56" viewBox="0 0 56 56" fill="none" xmlns="http://www.w3.org/2000/svg">
<g id="Convert 3d Cube">
<path id="icon" d="M51.3332 35.0001C51.3332 44.0301 44.0298 51.3334 34.9998 51.3334L37.4498 47.2501M4.6665 21.0001C4.6665 11.9701 11.9698 4.66675 20.9998 4.66675L18.5498 8.75008M31.9665 10.3834L41.2532 15.7501L50.4465 10.4068M41.2532 25.2468V15.7267M5.48318 36.0501L14.7465 41.4167L23.9632 36.0735M14.7465 50.9134V41.3934M39.0598 5.15675L33.4598 8.25998C32.1998 8.95998 31.1499 10.7333 31.1499 12.18V18.1067C31.1499 19.5534 32.1765 21.3267 33.4598 22.0267L39.0598 25.1301C40.2498 25.8067 42.2098 25.8067 43.4232 25.1301L49.0232 22.0267C50.2832 21.3267 51.3332 19.5534 51.3332 18.1067V12.18C51.3332 10.7333 50.3065 8.95998 49.0232 8.25998L43.4232 5.15675C42.2332 4.50341 40.2732 4.50341 39.0598 5.15675ZM12.5765 30.8234L6.97652 33.9266C5.71652 34.6266 4.6665 36.4 4.6665 37.8466V43.7734C4.6665 45.22 5.69318 46.9934 6.97652 47.6934L12.5765 50.7967C13.7665 51.4734 15.7265 51.4734 16.9398 50.7967L22.5398 47.6934C23.7998 46.9934 24.8498 45.22 24.8498 43.7734V37.8466C24.8498 36.4 23.8232 34.6266 22.5398 33.9266L16.9398 30.8234C15.7265 30.1701 13.7665 30.1701 12.5765 30.8234Z" stroke="#292D32" stroke-width="1.5" stroke-linecap="round" stroke-linejoin="round"/>
</g>
</svg>
