<svg width="49" height="49" viewBox="0 0 49 49" fill="none" xmlns="http://www.w3.org/2000/svg">
<path d="M47.6667 31.3333C47.6667 40.3633 40.3633 47.6667 31.3333 47.6667L33.7833 43.5833M1 17.3333C1 8.30333 8.30333 1 17.3333 1L14.8833 5.08333M28.3 6.71669L37.5866 12.0833L46.78 6.74005M37.5866 21.58V12.06M1.81668 32.3834L11.08 37.75L20.2967 32.4067M11.08 47.2467V37.7266M35.3933 1.49L29.7933 4.59323C28.5333 5.29323 27.4833 7.06655 27.4833 8.51321V14.44C27.4833 15.8866 28.51 17.66 29.7933 18.36L35.3933 21.4633C36.5833 22.14 38.5433 22.14 39.7567 21.4633L45.3567 18.36C46.6167 17.66 47.6667 15.8866 47.6667 14.44V8.51321C47.6667 7.06655 46.64 5.29323 45.3567 4.59323L39.7567 1.49C38.5667 0.836667 36.6067 0.836667 35.3933 1.49ZM8.91 27.1567L3.31001 30.2599C2.05001 30.9599 1 32.7332 1 34.1799V40.1066C1 41.5533 2.02668 43.3266 3.31001 44.0266L8.91 47.13C10.1 47.8067 12.06 47.8067 13.2733 47.13L18.8733 44.0266C20.1333 43.3266 21.1833 41.5533 21.1833 40.1066V34.1799C21.1833 32.7332 20.1567 30.9599 18.8733 30.2599L13.2733 27.1567C12.06 26.5033 10.1 26.5033 8.91 27.1567Z" stroke="#3C096C" stroke-width="1.5" stroke-linecap="round" stroke-linejoin="round"/>
</svg>
